<?xml version="1.0" encoding="UTF-8" standalone="no"?>
<!-- Created with Inkscape (http://www.inkscape.org/) -->

<svg
   width="210mm"
   height="297mm"
   viewBox="0 0 210 297"
   version="1.1"
   id="svg5"
   inkscape:version="1.1.1 (3bf5ae0d25, 2021-09-20)"
   sodipodi:docname="tiles.svg"
   xmlns:inkscape="http://www.inkscape.org/namespaces/inkscape"
   xmlns:sodipodi="http://sodipodi.sourceforge.net/DTD/sodipodi-0.dtd"
   xmlns="http://www.w3.org/2000/svg"
   xmlns:svg="http://www.w3.org/2000/svg">
  <sodipodi:namedview
     id="namedview7"
     pagecolor="#505050"
     bordercolor="#eeeeee"
     borderopacity="1"
     inkscape:pageshadow="0"
     inkscape:pageopacity="0"
     inkscape:pagecheckerboard="0"
     inkscape:document-units="mm"
     showgrid="true"
     inkscape:zoom="0.50000001"
     inkscape:cx="306.99999"
     inkscape:cy="398.99999"
     inkscape:window-width="1502"
     inkscape:window-height="1309"
     inkscape:window-x="879"
     inkscape:window-y="16"
     inkscape:window-maximized="0"
     inkscape:current-layer="layer1"
     inkscape:snap-bbox="true"
     inkscape:bbox-paths="true"
     inkscape:snap-bbox-edge-midpoints="true"
     inkscape:bbox-nodes="true"
     inkscape:snap-nodes="true"
     inkscape:snap-object-midpoints="true"
     inkscape:snap-midpoints="false"
     inkscape:snap-others="false"
     inkscape:snap-center="false"
     inkscape:snap-smooth-nodes="true"
     inkscape:snap-intersection-paths="false"
     inkscape:object-paths="false"
     inkscape:snap-bbox-midpoints="true"
     showguides="true"
     inkscape:guide-bbox="true"
     inkscape:snap-global="true">
    <sodipodi:guide
       position="-99.15699,392.41523"
       orientation="0,-1"
       id="guide921" />
    <sodipodi:guide
       position="-108.16781,354.58766"
       orientation="1,0"
       id="guide1003" />
    <sodipodi:guide
       position="-42.650492,354.5886"
       orientation="1,0"
       id="guide1005" />
  </sodipodi:namedview>
  <defs
     id="defs2">
    <marker
       style="overflow:visible"
       id="Arrow1Lstart"
       refX="0.0"
       refY="0.0"
       orient="auto"
       inkscape:stockid="Arrow1Lstart"
       inkscape:isstock="true">
      <path
         transform="scale(0.8) translate(12.5,0)"
         style="fill-rule:evenodd;fill:context-stroke;stroke:context-stroke;stroke-width:1.0pt"
         d="M 0.0,0.0 L 5.0,-5.0 L -12.5,0.0 L 5.0,5.0 L 0.0,0.0 z "
         id="path7278" />
    </marker>
  </defs>
  <g
     inkscape:label="Layer 1"
     inkscape:groupmode="layer"
     id="layer1">
    <g
       id="g12501"
       transform="matrix(0.88365353,0,0,0.88365353,-55.240588,55.56975)"
       style="stroke-width:1.13167">
      <path
         id="path12495"
         style="opacity:1;fill:#60ae7b;stroke-width:2.82916;stroke-miterlimit:0.5;stroke-dasharray:5.65831, 2.82916;paint-order:stroke fill markers"
         inkscape:transform-center-y="1.621622e-06"
         d="m 157.10636,-109.78574 -15.82209,9.13489 -15.82209,9.134893 -15.82209,-9.134893 -15.822089,-9.13489 v -18.26977 -18.26978 l 15.822089,-9.13489 15.82209,-9.13489 15.82209,9.13489 15.82209,9.13489 v 18.26978 z"
         sodipodi:nodetypes="ccccccccccccc" />
      <path
         style="fill:none;stroke:#1f244b;stroke-width:28.2916;stroke-linecap:butt;stroke-linejoin:miter;stroke-miterlimit:4;stroke-dasharray:none;stroke-opacity:1"
         d="m 93.818,-128.05551 h 63.28836"
         id="path12497" />
      <path
         style="fill:none;stroke:#f6edcd;stroke-width:2.26333;stroke-linecap:butt;stroke-linejoin:miter;stroke-miterlimit:1.3;stroke-dasharray:9.05334, 9.05334;stroke-dashoffset:14.4853;stroke-opacity:1"
         d="m 93.818,-128.05551 h 63.28836"
         id="path12499" />
    </g>
    <g
       id="g14874"
       transform="matrix(0.88365353,0,0,0.88365353,-186.27524,206.88006)"
       style="stroke-width:1.13167">
      <path
         id="path14864"
         style="opacity:1;fill:#60ae7b;stroke-width:2.82916;stroke-miterlimit:0.5;stroke-dasharray:5.65831, 2.82916;paint-order:stroke fill markers"
         inkscape:transform-center-y="1.621622e-06"
         d="m 157.10636,-109.78574 -15.82209,9.13489 -15.82209,9.134893 -15.82209,-9.134893 -15.822089,-9.13489 v -18.26977 -18.26978 l 15.822089,-9.13489 15.82209,-9.13489 15.82209,9.13489 15.82209,9.13489 v 18.26978 z"
         sodipodi:nodetypes="ccccccccccccc" />
      <path
         style="fill:none;stroke:#1f244b;stroke-width:28.2916;stroke-linecap:butt;stroke-linejoin:miter;stroke-miterlimit:4;stroke-dasharray:none;stroke-opacity:1"
         d="m 93.818,-128.05551 h 63.28836"
         id="path14866" />
      <path
         style="color:#000000;fill:#1f244b;stroke-width:1.13167;-inkscape-stroke:none"
         d="m 120.46484,-161.71094 -21.650387,12.5 3.337617,5.65366 c 0,0 1.44492,3.00818 -2.741577,3.00818 -4.186493,0 6.922337,24.91488 12.696357,24.91488 5.77402,0 9.4835,5.87274 9.4835,5.87274 l 8.86863,15.361089 21.65039,-12.499999 -3.02942,-5.24717 c 0,0 -1.05282,-3.41799 1.92925,-3.41799 2.98207,0 -9.99426,-24.84554 -14.46571,-24.84554 -4.47146,0 -5.6108,-3.1688 -5.6108,-3.1688 z"
         id="path14868"
         sodipodi:nodetypes="ccczzcccczzcc" />
      <path
         style="color:#000000;fill:#f6edcd;stroke-width:1.13167;stroke-miterlimit:1.3;stroke-dasharray:9.05334, 9.05334;stroke-dashoffset:22.6333;-inkscape-stroke:none"
         d="m 93.818359,-129.05469 v 2 h 4 v -2 z m 12.000001,0 v 2 h 8 v -2 z m 32,0 v 2 h 8 v -2 z m 16,0 v 2 h 3.28711 v -2 z"
         id="path14870"
         sodipodi:nodetypes="cccccccccccccccccccc" />
      <path
         style="color:#000000;fill:#f6edcd;stroke-width:1.13167;stroke-miterlimit:1.3;stroke-dasharray:9.05334, 9.05334;stroke-dashoffset:22.6333;-inkscape-stroke:none"
         d="m 110.50586,-155.96094 -1.73242,1 2,3.46485 1.73242,-1 z m 6,10.39258 -1.73242,1 4,6.92774 1.73242,-1 z m 16,27.71289 -1.73242,1 4,6.92774 1.73242,-1 z m 8,13.85742 -1.73242,1 1.64453,2.84766 1.73242,-1 z"
         id="path14872"
         sodipodi:nodetypes="cccccccccccccccccccc" />
    </g>
    <g
       id="g16196"
       transform="matrix(0.88365353,0,0,0.88365353,-418.29255,-85.880072)"
       style="stroke-width:1.13167">
      <path
         id="path16186"
         style="opacity:1;fill:#60ae7b;stroke-width:2.82916;stroke-miterlimit:0.5;stroke-dasharray:5.65831, 2.82916;paint-order:stroke fill markers"
         inkscape:transform-center-y="1.621622e-06"
         d="m 157.10636,-109.78574 -15.82209,9.13489 -15.82209,9.134893 -15.82209,-9.134893 -15.822089,-9.13489 v -18.26977 -18.26978 l 15.822089,-9.13489 15.82209,-9.13489 15.82209,9.13489 15.82209,9.13489 v 18.26978 z"
         sodipodi:nodetypes="ccccccccccccc" />
      <path
         id="path16188"
         style="color:#000000;fill:#1f244b;stroke-width:4.27716;-inkscape-stroke:none"
         d="m 235.57422,11.607422 -13.57965,23.522473 c -2.77298,4.851231 -7.7057,4.463077 -10.37733,-0.16442 L 198.29297,11.886719 116.46484,59.130859 129.08008,80.5 c 0,0 5.3129,11.112291 -9.90039,11.347656 H 97.582031 v 94.488284 h 25.177739 c 7.92428,1.91307 4.6621,12.59765 4.66211,12.59765 l -11.44922,19.83203 81.82812,47.24415 13.04691,-22.5977 c 3.01544,-5.2229 8.71634,-5.70705 12.10138,0.156 l 13.11734,22.72099 81.82812,-47.24414 -11.44922,-19.83203 c 0,0 -3.80472,-12.43452 6.74024,-12.87695 h 23.59179 V 91.847656 h -20.39062 c -0.36713,-0.157899 -0.77125,-0.257812 -1.23633,-0.257812 -15.82299,0 -10.36328,-11.371094 -10.36328,-11.371094 l 12.61523,-21.367188 z"
         transform="matrix(0.26458333,0,0,0.26458333,67.999735,-164.85618)"
         sodipodi:nodetypes="ccccccccccccccccccccccsccc" />
      <path
         style="color:#000000;fill:#f6edcd;stroke-width:1.13167;stroke-miterlimit:1.3;stroke-dasharray:9.05334, 9.05334;stroke-dashoffset:22.6333;-inkscape-stroke:none"
         d="m 93.818359,-129.05469 v 2 h 4 v -2 z m 12.000001,0 v 2 h 8 v -2 z m 32,0 v 2 h 8 v -2 z m 16,0 v 2 h 3.28711 v -2 z"
         id="path16190"
         sodipodi:nodetypes="cccccccccccccccccccc" />
      <path
         style="color:#000000;fill:#f6edcd;stroke-width:1.13167;stroke-miterlimit:1.3;stroke-dasharray:9.05334, 9.05334;stroke-dashoffset:22.6333;-inkscape-stroke:none"
         d="m 110.50586,-155.96094 -1.73242,1 2,3.46485 1.73242,-1 z m 6,10.39258 -1.73242,1 4,6.92774 1.73242,-1 z m 16,27.71289 -1.73242,1 4,6.92774 1.73242,-1 z m 8,13.85742 -1.73242,1 1.64453,2.84766 1.73242,-1 z"
         id="path16192"
         sodipodi:nodetypes="cccccccccccccccccccc" />
      <path
         style="color:#000000;fill:#f6edcd;stroke-width:1.13167;stroke-miterlimit:1.3;stroke-dasharray:9.05334, 9.05334;stroke-dashoffset:22.6333;-inkscape-stroke:none"
         d="m 140.28777,-156.03511 1.73242,1 -2,3.46485 -1.73242,-1 z m -6,10.39258 1.73242,1 -4,6.92774 -1.73242,-1 z m -16,27.71289 1.73242,1 -4,6.92774 -1.73242,-1 z m -8,13.85742 1.73242,1 -1.64453,2.84766 -1.73242,-1 z"
         id="path16194"
         sodipodi:nodetypes="cccccccccccccccccccc" />
    </g>
    <g
       id="g2875"
       transform="translate(-68.935178,244.36886)" />
    <g
       id="g8326"
       transform="matrix(-0.44182676,-0.7652664,0.7652664,-0.44182676,36.153931,-11.509826)"
       style="stroke-width:1.13167">
      <path
         id="path8316"
         style="opacity:1;fill:#60ae7b;stroke-width:2.82916;stroke-miterlimit:0.5;stroke-dasharray:5.65831, 2.82916;paint-order:stroke fill markers"
         inkscape:transform-center-y="1.7561764e-06"
         d="m 2.4945764,-107.80354 -2e-6,-18.26977 -4e-6,-18.26978 15.8220936,-9.13489 15.82209,-9.13488 15.82209,9.13488 15.82209,9.13489 v 18.26978 18.26977 l -15.82209,9.134892 -15.82209,9.134889 -15.82209,-9.134889 z"
         sodipodi:nodetypes="ccccccccccccc"
         inkscape:transform-center-x="3.1543659e-06" />
      <path
         style="color:#000000;fill:#1f244b;stroke-width:1.13167;-inkscape-stroke:none"
         d="m 60.785264,-147.22808 -21.65063,-12.5 -15.82178,27.40412 -15.8217756,27.40413 21.6506356,12.5 z"
         id="path8318"
         sodipodi:nodetypes="cccccc" />
      <path
         id="path8320"
         style="color:#000000;fill:#1f244b;stroke-width:1.13167;stroke-linecap:square;-inkscape-stroke:none"
         d="m 33.000734,-117.53708 5.0992,-24.4735 c 0,0 -5.024351,-7.27268 -6.368142,-4.94517 -1.566962,2.71406 -3.761192,2.24797 -5.869058,2.3953 -2.461723,0.17207 -11.70609,0.19381 -23.3681386,6.00261 l 1.46e-4,12.48466 -2.61e-4,17.67792 4.47e-4,-5.17463 c 0,0 5.5545821,-3.64503 8.6546826,-4.74824 1.215827,-0.43267 4.508581,-0.89318 3.012949,1.84922 -1.246579,2.28573 6.600515,-3.61829 6.600515,-3.61829 z"
         sodipodi:nodetypes="ccssccccsscc" />
      <path
         style="fill:none;stroke:#f6edcd;stroke-width:2.26333;stroke-linecap:butt;stroke-linejoin:miter;stroke-miterlimit:1.3;stroke-dasharray:9.05334, 9.05334;stroke-dashoffset:14.4853;stroke-opacity:1"
         d="m 49.960844,-153.47798 -31.64418,54.809332"
         id="path8322" />
      <path
         style="color:#000000;fill:#f6edcd;stroke-width:1.13167;stroke-linecap:square;stroke-dasharray:6.78999, 6.78999;stroke-dashoffset:10.6376;-inkscape-stroke:none"
         d="m 21.676904,-131.56462 0.10507,-1.99839 -0.99787,-0.0529 -0.21023,-0.0109 -0.28798,-0.0129 -0.29964,-0.008 -0.30763,-0.006 -0.32099,-0.003 -0.32898,-5e-4 -0.33894,0.005 -0.3489,0.0106 -0.3569,0.0127 -0.36686,0.0182 -0.37343,0.0257 -0.38242,0.0295 -0.38801,0.0353 -0.39628,0.0418 -0.40285,0.0493 -0.41112,0.0558 -0.41502,0.0626 -0.2599,0.0439 -0.98648,0.16567 0.33135,1.97297 0.98648,-0.16567 0.24486,-0.0413 0.38594,-0.0591 0.37936,-0.0516 0.37377,-0.0458 0.36719,-0.0383 0.36159,-0.0325 0.3543,-0.0277 0.34702,-0.0229 0.33973,-0.0181 0.33243,-0.0133 0.32248,-0.008 0.31617,-0.005 0.30719,-8.1e-4 0.29553,0.004 0.28754,0.006 0.27686,0.009 0.26886,0.0109 0.19882,0.0111 z m -11.33762,1.51233 -0.8072996,-1.82828 -0.91583,0.40267 -0.02426,0.0108 -0.232068,0.10507 -0.231359,0.10775 -0.231611,0.1121 -0.231878,0.11647 -0.231865,0.11646 -0.233119,0.12251 -0.231421,0.12349 -0.229995,0.12883 -0.23194,0.13221 -0.231227,0.13488 -0.230513,0.13754 -0.230779,0.1419 -0.231037,0.14626 -0.228635,0.14991 -0.229614,0.15161 -0.228179,0.15693 -0.2274639,0.1596 -0.226033,0.16494 -0.2279841,0.16832 -0.225577,0.17197 -0.22318,0.17562 -0.2251239,0.17899 -0.222719,0.18264 -0.01963,0.018 -0.2968111,0.25387 1.291695,1.52834 0.2951231,-0.25485 0.01105,-0.007 0.203526,-0.16891 0.203216,-0.16458 0.204726,-0.1592 0.205396,-0.15656 0.207807,-0.15291 0.205861,-0.14952 0.208264,-0.14588 0.208977,-0.14322 0.207031,-0.13983 0.209428,-0.13618 0.209167,-0.13183 0.20989,-0.12916 0.210598,-0.12649 0.211321,-0.12381 0.211051,-0.11947 0.211768,-0.1168 0.209813,-0.1134 0.212229,-0.10978 0.211245,-0.10806 0.211961,-0.10541 0.21267,-0.10274 0.21241,-0.0984 0.21144,-0.0967 0.0145,-0.005 z"
         id="path8324"
         sodipodi:nodetypes="cccccccccccccccccccccccccccccccccccccccccccccccccccccccccccccccccccccccccccccccccccccccccccccccccccc" />
    </g>
    <g
       id="g9191"
       transform="matrix(0.44182676,-0.7652664,-0.7652664,-0.44182676,-121.4559,-11.509128)"
       style="stroke-width:1.13167">
      <path
         id="path9181"
         style="opacity:1;fill:#60ae7b;stroke-width:2.82916;stroke-miterlimit:0.5;stroke-dasharray:5.65831, 2.82916;paint-order:stroke fill markers"
         inkscape:transform-center-y="1.7561764e-06"
         d="m 2.4945764,-107.80354 -2e-6,-18.26977 -4e-6,-18.26978 15.8220936,-9.13489 15.82209,-9.13488 15.82209,9.13488 15.82209,9.13489 v 18.26978 18.26977 l -15.82209,9.134892 -15.82209,9.134889 -15.82209,-9.134889 z"
         sodipodi:nodetypes="ccccccccccccc"
         inkscape:transform-center-x="3.1543659e-06" />
      <path
         style="color:#000000;fill:#1f244b;stroke-width:1.13167;-inkscape-stroke:none"
         d="m 60.785264,-147.22808 -21.65063,-12.5 -15.82178,27.40412 -15.8217756,27.40413 21.6506356,12.5 z"
         id="path9183"
         sodipodi:nodetypes="cccccc" />
      <path
         id="path9185"
         style="color:#000000;fill:#1f244b;stroke-width:1.13167;stroke-linecap:square;-inkscape-stroke:none"
         d="m 33.000734,-117.53708 5.0992,-24.4735 c 0,0 -5.024351,-7.27268 -6.368142,-4.94517 -1.566962,2.71406 -3.761192,2.24797 -5.869058,2.3953 -2.461723,0.17207 -11.70609,0.19381 -23.3681386,6.00261 l 1.46e-4,12.48466 -2.61e-4,17.67792 4.47e-4,-5.17463 c 0,0 5.5545821,-3.64503 8.6546826,-4.74824 1.215827,-0.43267 4.508581,-0.89318 3.012949,1.84922 -1.246579,2.28573 6.600515,-3.61829 6.600515,-3.61829 z"
         sodipodi:nodetypes="ccssccccsscc" />
      <path
         style="fill:none;stroke:#f6edcd;stroke-width:2.26333;stroke-linecap:butt;stroke-linejoin:miter;stroke-miterlimit:1.3;stroke-dasharray:9.05334, 9.05334;stroke-dashoffset:14.4853;stroke-opacity:1"
         d="m 49.960844,-153.47798 -31.64418,54.809332"
         id="path9187" />
      <path
         style="color:#000000;fill:#f6edcd;stroke-width:1.13167;stroke-linecap:square;stroke-dasharray:6.78999, 6.78999;stroke-dashoffset:10.6376;-inkscape-stroke:none"
         d="m 21.676904,-131.56462 0.10507,-1.99839 -0.99787,-0.0529 -0.21023,-0.0109 -0.28798,-0.0129 -0.29964,-0.008 -0.30763,-0.006 -0.32099,-0.003 -0.32898,-5e-4 -0.33894,0.005 -0.3489,0.0106 -0.3569,0.0127 -0.36686,0.0182 -0.37343,0.0257 -0.38242,0.0295 -0.38801,0.0353 -0.39628,0.0418 -0.40285,0.0493 -0.41112,0.0558 -0.41502,0.0626 -0.2599,0.0439 -0.98648,0.16567 0.33135,1.97297 0.98648,-0.16567 0.24486,-0.0413 0.38594,-0.0591 0.37936,-0.0516 0.37377,-0.0458 0.36719,-0.0383 0.36159,-0.0325 0.3543,-0.0277 0.34702,-0.0229 0.33973,-0.0181 0.33243,-0.0133 0.32248,-0.008 0.31617,-0.005 0.30719,-8.1e-4 0.29553,0.004 0.28754,0.006 0.27686,0.009 0.26886,0.0109 0.19882,0.0111 z m -11.33762,1.51233 -0.8072996,-1.82828 -0.91583,0.40267 -0.02426,0.0108 -0.232068,0.10507 -0.231359,0.10775 -0.231611,0.1121 -0.231878,0.11647 -0.231865,0.11646 -0.233119,0.12251 -0.231421,0.12349 -0.229995,0.12883 -0.23194,0.13221 -0.231227,0.13488 -0.230513,0.13754 -0.230779,0.1419 -0.231037,0.14626 -0.228635,0.14991 -0.229614,0.15161 -0.228179,0.15693 -0.2274639,0.1596 -0.226033,0.16494 -0.2279841,0.16832 -0.225577,0.17197 -0.22318,0.17562 -0.2251239,0.17899 -0.222719,0.18264 -0.01963,0.018 -0.2968111,0.25387 1.291695,1.52834 0.2951231,-0.25485 0.01105,-0.007 0.203526,-0.16891 0.203216,-0.16458 0.204726,-0.1592 0.205396,-0.15656 0.207807,-0.15291 0.205861,-0.14952 0.208264,-0.14588 0.208977,-0.14322 0.207031,-0.13983 0.209428,-0.13618 0.209167,-0.13183 0.20989,-0.12916 0.210598,-0.12649 0.211321,-0.12381 0.211051,-0.11947 0.211768,-0.1168 0.209813,-0.1134 0.212229,-0.10978 0.211245,-0.10806 0.211961,-0.10541 0.21267,-0.10274 0.21241,-0.0984 0.21144,-0.0967 0.0145,-0.005 z"
         id="path9189"
         sodipodi:nodetypes="cccccccccccccccccccccccccccccccccccccccccccccccccccccccccccccccccccccccccccccccccccccccccccccccccccc" />
    </g>
    <g
       id="g3794"
       transform="matrix(0.44182676,-0.7652664,-0.7652664,-0.44182676,9.5788392,-11.509129)"
       style="stroke-width:1.13167">
      <path
         id="path3784"
         style="opacity:1;fill:#60ae7b;stroke-width:2.82916;stroke-miterlimit:0.5;stroke-dasharray:5.65831, 2.82916;paint-order:stroke fill markers"
         inkscape:transform-center-y="1.7561764e-06"
         d="m 2.4945764,-107.80354 -2e-6,-18.26977 -4e-6,-18.26978 15.8220936,-9.13489 15.82209,-9.13488 15.82209,9.13488 15.82209,9.13489 v 18.26978 18.26977 l -15.82209,9.134892 -15.82209,9.134889 -15.82209,-9.134889 z"
         sodipodi:nodetypes="ccccccccccccc"
         inkscape:transform-center-x="3.1543659e-06" />
      <path
         style="color:#000000;fill:#1f244b;stroke-width:1.13167;-inkscape-stroke:none"
         d="m 60.785264,-147.22808 -21.65063,-12.5 -15.82178,27.40412 -15.8217756,27.40413 21.6506356,12.5 z"
         id="path3786"
         sodipodi:nodetypes="cccccc" />
      <path
         id="path9193"
         style="color:#000000;fill:#1f244b;stroke-width:1.13167;stroke-linecap:square;-inkscape-stroke:none"
         d="m 33.000734,-117.53708 5.0992,-24.4735 c 0,0 -5.024351,-7.27268 -6.368142,-4.94517 -1.566962,2.71406 -3.878145,8.99147 -5.986011,9.1388 -2.461723,0.17207 -10.37166,-5.03754 -23.2511856,-0.74089 l 1.46e-4,12.48466 -2.61e-4,17.67792 4.47e-4,-5.17463 c 0,0 5.5545821,-3.64503 8.6546826,-4.74824 1.215827,-0.43267 4.508581,-0.89318 3.012949,1.84922 -1.246579,2.28573 6.600515,-3.61829 6.600515,-3.61829 z"
         sodipodi:nodetypes="ccssccccsscc" />
      <path
         id="path3788"
         style="color:#000000;fill:#1f244b;stroke-width:1.13167;stroke-linecap:square;-inkscape-stroke:none"
         d="m 42.298502,-132.68452 -18.645073,16.65279 c 0,0 -8.810501,-0.71488 -7.466714,-3.04239 1.566964,-2.71406 6.607954,-6.13413 5.681619,-8.03326 -0.837361,-1.71672 -17.2724613,-12.57737 -11.76239,-13.05676 2.55076,-0.22192 0.02242,-1.84251 -2.6107221,-7.06608 l 12.1957281,-7.04104 c 2.857937,-1.64974 9.453421,-5.45773 9.453421,-5.45773 0,0 0.957517,5.275 1.55216,8.51137 0.23321,1.26927 1.480773,4.35113 3.107946,1.68468 1.35621,-2.22244 0.166726,7.52536 0.166726,7.52536 z"
         sodipodi:nodetypes="ccssscccsscc" />
      <path
         style="fill:none;stroke:#f6edcd;stroke-width:2.26333;stroke-linecap:butt;stroke-linejoin:miter;stroke-miterlimit:1.3;stroke-dasharray:9.05334, 9.05334;stroke-dashoffset:14.4853;stroke-opacity:1"
         d="m 49.960844,-153.47798 -31.64418,54.809332"
         id="path3790" />
      <path
         id="path9195"
         style="color:#000000;fill:#f6edcd;stroke-width:1.13167;stroke-linecap:square;stroke-dasharray:6.79, 6.79;stroke-dashoffset:10.6376;-inkscape-stroke:none"
         d="m 18.192162,-128.29624 -0.309865,-0.0614 -0.34933,-0.0651 -0.357368,-0.0621 -0.365042,-0.0581 -0.372716,-0.0526 -0.380024,-0.0482 -0.387698,-0.0428 -0.24738,-0.0237 -0.996102,-0.095 0.190744,-1.99147 0.995736,0.0954 0.262361,0.0249 0.417297,0.0468 0.411448,0.0526 0.402314,0.0566 0.393177,0.0621 0.384044,0.0661 0.3771,0.0709 0.367236,0.072 0.359195,0.0771 c -0.795127,1.87601 0,0 -0.795127,1.87601 z m -7.514973,-0.39976 -0.9887932,0.15493 -0.014988,0.001 -0.2294765,0.0387 -0.2305729,0.0398 -0.2320335,0.0442 -0.2320332,0.0471 -0.2320351,0.0493 -0.2334937,0.0515 -0.2320341,0.0552 -0.2345918,0.0577 -0.2349578,0.061 -0.2360539,0.065 -0.2364185,0.0676 -0.2360535,0.0702 -0.2356876,0.0734 -0.2378789,0.0771 -0.2360534,0.0819 -0.2389782,0.084 -0.2389759,0.087 -0.2375156,0.0914 -0.2404366,0.0935 -0.2386111,0.0983 -0.2389779,0.10085 -0.2393423,0.10634 -0.2400727,0.11071 -0.01243,0.004 -0.351157,0.16992 -0.8517652,-1.8106 0.3518867,-0.16845 0.024125,-0.0124 0.2619975,-0.11876 0.2638245,-0.11474 0.2612658,-0.11144 0.2623618,-0.10816 0.263459,-0.10342 0.2612671,-0.10048 0.2609019,-0.0957 0.2612659,-0.0924 0.2609015,-0.087 0.2594383,-0.0855 0.2612673,-0.0815 0.2594392,-0.0775 0.2583435,-0.0735 0.2579771,-0.0702 0.2583425,-0.0676 0.2557848,-0.065 0.2554206,-0.0596 0.2572475,-0.0577 0.2535929,-0.0526 0.2543233,-0.0526 0.2528625,-0.0482 0.2510344,-0.0442 0.2517653,-0.0413 0.025947,-0.004 0.9887942,-0.15201 z"
         sodipodi:nodetypes="ccccccccccccccccccccccccccccccccccccccccccccccccccccccccccccccccccccccccccccccc" />
      <path
         id="path3792"
         style="color:#000000;fill:#f6edcd;stroke-width:1.13167;stroke-linecap:square;stroke-dasharray:6.79, 6.79;stroke-dashoffset:10.6376;-inkscape-stroke:none"
         d="m 23.929877,-139.09496 -0.249443,-0.29101 -0.249296,-0.29951 -0.250888,-0.30958 -0.249708,-0.31997 -0.251294,-0.33001 -0.249154,-0.338 -0.152694,-0.21479 -0.580461,-0.81465 1.629295,-1.16092 0.580326,0.81514 0.14376,0.20223 0.231373,0.31452 0.231782,0.30499 0.231928,0.29647 0.23234,0.28696 0.232977,0.27856 0.06072,0.0708 c -1.341574,1.50872 0,0 -1.341574,1.50872 z m -2.383754,-7.38018 -1.863713,0.722 -0.362751,-0.93232 -0.01002,-0.0246 -0.08962,-0.23854 -0.08723,-0.23951 -0.08466,-0.2431 -0.08159,-0.24656 -0.08173,-0.24606 -0.07813,-0.25152 -0.07615,-0.25097 -0.07166,-0.25355 -0.07066,-0.25752 -0.06806,-0.25901 -0.06555,-0.26046 -0.06261,-0.26341 -0.06007,-0.26701 -0.05567,-0.26743 -0.05513,-0.26944 -0.05057,-0.27248 -0.04804,-0.27395 -0.04311,-0.27637 -0.04217,-0.27987 -0.03801,-0.28142 -0.03361,-0.28186 -0.03254,-0.28585 -0.02815,-0.28627 -0.0013,-0.0271 -0.03056,-0.3891 1.994402,-0.16752 0.02843,0.38907 0.003,0.0125 0.02415,0.26327 0.02758,0.26045 0.03215,0.25738 0.03418,0.2558 0.0392,0.25499 0.03964,0.25138 0.04417,0.25044 0.04621,0.24885 0.04764,0.24548 0.05167,0.24442 0.05473,0.24098 0.05724,0.23952 0.05967,0.23853 0.06173,0.23695 0.06466,0.23397 0.06734,0.23202 0.06827,0.22853 0.07213,0.22797 0.0733,0.2256 0.07519,0.22452 0.07773,0.22305 0.08079,0.2196 0.08119,0.21809 0.0065,0.0136 z"
         sodipodi:nodetypes="cccccccccccccccccccccccccccccccccccccccccccccccccccccccccccccccccccccccccccc" />
    </g>
    <g
       id="g4483"
       transform="matrix(0.88365353,0,0,0.88365353,-58.057023,57.373145)"
       style="stroke-width:1.13167">
      <path
         id="path4120"
         style="fill:#60ae7b;stroke-width:2.82916;stroke-miterlimit:0.5;stroke-dasharray:5.65831, 2.82916;paint-order:stroke fill markers"
         inkscape:transform-center-y="1.621622e-06"
         d="m 86.150044,-111.82658 -15.82209,9.13489 -15.82209,9.1349 -15.82209,-9.1349 -15.82208,-9.13489 v -18.26977 -18.26978 l 15.82208,-9.13489 15.82209,-9.13489 15.82209,9.13489 15.82209,9.13489 v 18.26978 z"
         sodipodi:nodetypes="ccccccccccccc" />
      <path
         id="path4468"
         style="color:#000000;fill:#1f244b;stroke-width:1.13167;stroke-linecap:square;-inkscape-stroke:none"
         d="m 76.841197,-142.62272 c -7.464443,0.016 -16.57224,0.69411 -25.226882,6.0079 -8.654643,5.31378 -15.818578,13.99813 -23.74222,27.64844 l -0.01395,0.0243 10.825696,6.25026 10.826729,6.250785 c 6.875578,-11.839405 11.900392,-16.852995 15.184085,-18.869135 3.28612,-2.01761 5.86614,-2.30099 12.199255,-2.31458 2.801154,-0.006 0.209333,0.0274 9.255765,0.0274 h 5.29e-4 v -12.49897 -12.50105 h -5.29e-4 c -8.984686,0 -6.346677,-0.0317 -9.308476,-0.0253 z" />
      <path
         id="path4470"
         style="color:#000000;fill:#f6edcd;stroke-width:1.13167;stroke-linecap:square;stroke-dasharray:9.05334, 9.05334;stroke-dashoffset:18.5593;-inkscape-stroke:none"
         d="m 77.560017,-131.12833 -0.01963,1.99988 0.99994,0.01 0.659908,0.006 c 2.320338,0.0182 4.637662,0.0131 6.949445,0.0155 h 5.29e-4 v -0.99942 -1.00046 c -2.314688,-0.002 -4.625829,0.002 -6.931877,-0.0155 h -0.0021 l -0.656289,-0.006 z m -6.103503,0.15813 -0.996323,0.0956 -0.484206,0.047 -0.60565,0.0682 -0.601511,0.076 -0.595832,0.0863 h -0.0036 c -1.896684,0.28714 -3.781312,0.73561 -5.603793,1.3963 l -0.0021,0.002 -0.151929,0.0548 -0.937927,0.34572 0.691431,1.87689 0.937926,-0.34572 0.150379,-0.0548 c 1.676072,-0.60711 3.42882,-1.02712 5.208984,-1.29708 l 0.0078,-0.002 0.566372,-0.0801 0.569992,-0.0724 0.576193,-0.0646 0.470771,-0.047 0.996323,-0.0956 z m -15.475024,5.22862 -0.796851,0.60151 c -1.530429,1.15508 -2.950813,2.43767 -4.282943,3.78892 -0.578395,0.58741 -1.142526,1.18829 -1.69137,1.80299 l -0.666109,0.74569 1.492416,1.33222 0.665591,-0.74621 c 0.527373,-0.59065 1.067811,-1.16818 1.623158,-1.73219 1.277086,-1.29541 2.625426,-2.50925 4.062802,-3.5941 l 0.798401,-0.60306 z m -11.220505,11.7383 -0.578258,0.81442 c -1.560298,2.19693 -3.026645,4.4541 -4.427638,6.74378 l -0.521414,0.85369 1.705321,1.04283 0.522968,-0.85163 c 1.382413,-2.25931 2.821561,-4.47908 4.349604,-6.6306 l 0.580327,-0.81442 z" />
    </g>
    <g
       id="g1209"
       transform="matrix(0.88365353,0,0,0.88365353,119.26848,53.404728)"
       style="stroke-width:1.13167">
      <g
         id="g2833"
         transform="translate(-52.384827,4.490128)"
         style="stroke-width:1.13167">
        <path
           id="path2825"
           style="fill:#60ae7b;stroke-width:2.82916;stroke-miterlimit:0.5;stroke-dasharray:5.65831, 2.82916;paint-order:stroke fill markers"
           inkscape:transform-center-y="1.621622e-06"
           d="m 86.150044,-111.82658 -15.82209,9.13489 -15.82209,9.1349 -15.82209,-9.1349 -15.82208,-9.13489 v -18.26977 -18.26978 l 15.82208,-9.13489 15.82209,-9.13489 15.82209,9.13489 15.82209,9.13489 v 18.26978 z"
           sodipodi:nodetypes="ccccccccccccc" />
        <path
           id="path1813"
           style="color:#000000;fill:#1f244b;stroke-width:1.13167;stroke-linecap:square;-inkscape-stroke:none"
           d="m 76.841197,-142.62272 c -7.464443,0.016 -16.57224,0.69411 -25.226882,6.0079 -8.654643,5.31378 -15.818578,13.99813 -23.74222,27.64844 l -0.01395,0.0243 10.825696,6.25026 10.826729,6.250785 c 6.875578,-11.839405 11.900392,-16.852995 15.184085,-18.869135 3.28612,-2.01761 5.86614,-2.30099 12.199255,-2.31458 2.801154,-0.006 0.209333,0.0274 9.255765,0.0274 h 5.29e-4 v -12.49897 -12.50105 h -5.29e-4 c -8.984686,0 -6.346677,-0.0317 -9.308476,-0.0253 z" />
        <path
           id="path2794"
           style="color:#000000;fill:#1f244b;stroke-width:4.27716;stroke-linecap:square;-inkscape-stroke:none"
           d="m 817.57227,-482.32617 -86.2793,38.51953 19.25781,43.13867 c 0,0 -0.0363,29.12989 3.77165,22.53431 8.82858,-15.29155 17.51937,25.161 17.51937,25.161 l 2.0039,4.48828 41.13477,-23.75 41.13476,-23.75 c 0,0 -32.99745,-31.14074 -14.4921,-32.46741 18.50535,-1.32667 -4.7911,-10.73376 -4.7911,-10.73376 z"
           transform="matrix(0.26458333,0,0,0.26458333,-145.30218,-4.2048862)"
           sodipodi:nodetypes="cccscccczcc" />
        <path
           id="path2613"
           style="color:#000000;fill:#f6edcd;stroke-width:4.27716;stroke-linecap:square;stroke-miterlimit:3.7;stroke-dasharray:25.663, 25.663;stroke-dashoffset:21.3858;-inkscape-stroke:none"
           d="m 796.85742,-422.08984 -6.90039,3.07812 1.54102,3.45508 9.24218,20.70508 1.54297,3.44922 6.90235,-3.08008 -1.54297,-3.45313 -9.24219,-20.70703 z m 18.49219,41.41211 -6.90234,3.08593 1.54296,3.44727 1.53516,3.45508 0.16016,0.35742 3.29492,-1.90235 3.28906,-1.89843 -1.37695,-3.08985 z"
           transform="matrix(0.26458333,0,0,0.26458333,-145.30218,-4.2048862)" />
        <path
           id="path1815"
           style="color:#000000;fill:#f6edcd;stroke-width:1.13167;stroke-linecap:square;stroke-dasharray:9.05334, 9.05334;stroke-dashoffset:18.5593;-inkscape-stroke:none"
           d="m 77.560017,-131.12833 -0.01963,1.99988 0.99994,0.01 0.659908,0.006 c 2.320338,0.0182 4.637662,0.0131 6.949445,0.0155 h 5.29e-4 v -0.99942 -1.00046 c -2.314688,-0.002 -4.625829,0.002 -6.931877,-0.0155 h -0.0021 l -0.656289,-0.006 z m -6.103503,0.15813 -0.996323,0.0956 -0.484206,0.047 -0.60565,0.0682 -0.601511,0.076 -0.595832,0.0863 h -0.0036 c -1.896684,0.28714 -3.781312,0.73561 -5.603793,1.3963 l -0.0021,0.002 -0.151929,0.0548 -0.937927,0.34572 0.691431,1.87689 0.937926,-0.34572 0.150379,-0.0548 c 1.676072,-0.60711 3.42882,-1.02712 5.208984,-1.29708 l 0.0078,-0.002 0.566372,-0.0801 0.569992,-0.0724 0.576193,-0.0646 0.470771,-0.047 0.996323,-0.0956 z m -15.475024,5.22862 -0.796851,0.60151 c -1.530429,1.15508 -2.950813,2.43767 -4.282943,3.78892 -0.578395,0.58741 -1.142526,1.18829 -1.69137,1.80299 l -0.666109,0.74569 1.492416,1.33222 0.665591,-0.74621 c 0.527373,-0.59065 1.067811,-1.16818 1.623158,-1.73219 1.277086,-1.29541 2.625426,-2.50925 4.062802,-3.5941 l 0.798401,-0.60306 z m -11.220505,11.7383 -0.578258,0.81442 c -1.560298,2.19693 -3.026645,4.4541 -4.427638,6.74378 l -0.521414,0.85369 1.705321,1.04283 0.522968,-0.85163 c 1.382413,-2.25931 2.821561,-4.47908 4.349604,-6.6306 l 0.580327,-0.81442 z" />
      </g>
    </g>
    <g
       id="g1263"
       transform="matrix(0.88365353,0,0,0.88365353,-57.450201,56.152911)"
       style="stroke-width:1.13167">
      <path
         id="path1257"
         style="fill:#60ae7b;stroke-width:2.82916;stroke-miterlimit:0.5;stroke-dasharray:5.65831, 2.82916;paint-order:stroke fill markers"
         inkscape:transform-center-y="1.621622e-06"
         d="m 11.320563,-110.44647 -15.8220906,9.13489 -15.8220904,9.134889 -15.82209,-9.134889 -15.822091,-9.13489 v -18.26977 -18.26978 l 15.822091,-9.13489 15.82209,-9.13489 15.8220906,9.13489 15.8220904,9.13489 v 18.26978 z"
         sodipodi:nodetypes="ccccccccccccc" />
      <path
         id="path1259"
         style="color:#000000;fill:#1f244b;stroke-width:4.27716;stroke-linecap:square;-inkscape-stroke:none"
         d="m 35.263672,-534.05859 c -13.646364,0.0577 -40.7323042,2.3954 -68.371094,17.51171 -19.654251,10.7494 -41.748653,33.18767 -47.28125,63.53516 -5.532597,30.34753 3.635877,61.11136 22.462891,93.7207 l 40.912109,-23.61914 40.917969,-23.62304 -0.002,-0.002 c -16.5486662,-26.28895 -10.461823,-29.64624 17.28125,-32.73242 l 1.603515,0.0547 v -47.27344 -47.34961 c -1.121861,-0.0795 -2.743404,-0.1692 -4.976562,-0.20703 -0.786472,-0.0133 -1.637118,-0.0195 -2.546875,-0.0156 z"
         transform="scale(0.26458333)" />
      <path
         id="path1261"
         style="color:#000000;fill:#f6edcd;stroke-width:4.27716;stroke-linecap:square;stroke-dasharray:25.663, 25.663;-inkscape-stroke:none"
         d="m 41.310547,-490.28906 c -0.51829,-9.5e-4 -1.024968,0.002 -1.521485,0.006 h -0.0078 -0.0078 c -2.167107,0.0265 -4.3257,0.11412 -6.47461,0.24414 h -0.0059 l -1.625,0.10937 -1.734375,0.13281 -1.816406,0.16407 -1.904297,0.19922 -1.978516,0.22851 -2.052734,0.27344 -2.109375,0.30859 -0.480469,0.0742 -3.728516,0.60547 1.210938,7.46289 3.728515,-0.60547 0.419922,-0.0664 2,-0.29493 1.935547,-0.25195 1.880859,-0.2207 1.802735,-0.1836 1.726562,-0.15625 1.638672,-0.13281 1.550781,-0.10351 c 2.036791,-0.12359 4.071505,-0.20357 6.097657,-0.22852 0.982964,-0.008 1.918953,-0.0108 2.818359,0.0156 l 0.113281,0.004 v -3.78125 -3.7832 c -0.499771,-0.0129 -0.994018,-0.0187 -1.476562,-0.0195 z m -40.89062512,6.26562 -3.51367188,1.38867 -1.0703125,0.41993 -1.1738281,0.48046 -1.1660156,0.50977 -1.1660157,0.51563 -1.1582031,0.54687 -1.1523438,0.56055 -1.1367192,0.58398 -1.136718,0.60547 -1.123047,0.62695 -1.105469,0.64844 -1.101562,0.67969 -1.083985,0.69336 -1.078125,0.71679 -1.054687,0.7461 -1.041016,0.77539 -1.027344,0.78906 -1.011718,0.82031 -0.988282,0.84766 -0.746093,0.67188 -2.804688,2.52539 5.056641,5.61718 2.8125,-2.52539 0.671875,-0.60547 0.841797,-0.72265 0.871093,-0.70899 0.878907,-0.68554 0.90625,-0.66407 0.916015,-0.65039 0.9375,-0.62695 0.958985,-0.61328 0.96875,-0.58984 0.9804684,-0.57618 0.9980468,-0.55468 1.0097657,-0.53907 1.0195312,-0.52343 1.0332031,-0.50977 1.0410157,-0.48633 1.0488281,-0.47265 1.0625,-0.45703 1.0703125,-0.43555 1.01171875,-0.40625 3.52148435,-1.38086 z m -35.97851588,30.73047 -1.033203,3.64063 c -1.154163,4.04156 -1.728318,8.19213 -1.845703,12.3125 -0.112932,3.97311 0.187658,7.91815 0.783203,11.78125 l 0.574219,3.73437 7.470703,-1.15039 -0.574219,-3.73633 c -0.535487,-3.47353 -0.793393,-6.96508 -0.695312,-10.41601 0.101593,-3.56618 0.591635,-7.0925 1.550781,-10.45117 l 1.041016,-3.64063 z m 9.980469,43.97461 -7.005859,2.8418 1.417968,3.5 c 2.899774,7.16084 6.370171,14.03428 10.142578,20.67578 l 0.0078,0.008 0.06641,0.11719 0.66211,1.1543 3.273437,-1.88868 3.273438,-1.89062 -0.646485,-1.13086 -0.06055,-0.10352 -0.0059,-0.008 c -3.647751,-6.42266 -6.964857,-12.9979 -9.707031,-19.76953 z"
         transform="scale(0.26458333)" />
    </g>
    <path
       id="path2176"
       style="fill:#60ae7b;stroke-width:2.5;stroke-miterlimit:0.5;stroke-dasharray:4.99999, 2.5;paint-order:stroke fill markers"
       inkscape:transform-center-y="1.621622e-06"
       d="m 83.587978,109.8668 -13.981246,8.07208 -13.981246,8.07208 -13.981245,-8.07208 -13.981247,-8.07208 V 93.722663 77.578503 l 13.981247,-8.07208 13.981245,-8.07207 13.981246,8.07207 13.981246,8.07208 v 16.14416 z"
       sodipodi:nodetypes="ccccccccccccc" />
    <g
       id="g4857"
       transform="matrix(0.88365353,0,0,0.88365353,-65.52141,60.045092)"
       style="stroke-width:1.13167">
      <path
         id="path4377"
         style="color:#000000;fill:#1f244b;stroke-width:1.13167;stroke-linecap:square;-inkscape-stroke:none"
         d="m 159.43296,-60.030954 c -7.46444,0.016 -16.57224,0.69411 -25.22688,6.0079 -8.65464,5.31378 -15.81858,13.99813 -23.74222,27.64844 l -0.0139,0.0243 10.8257,6.25026 10.82673,6.250785 c 6.87557,-11.839405 11.90039,-16.852995 15.18408,-18.869135 3.28612,-2.01761 5.86614,-2.30099 12.19926,-2.31458 2.80115,-0.006 0.20933,0.0274 9.25576,0.0274 h 5.3e-4 v -12.49897 -12.50105 h -5.3e-4 c -8.98469,0 -6.34668,-0.0317 -9.30848,-0.0253 z" />
      <path
         id="path4379"
         style="color:#000000;fill:#f6edcd;stroke-width:1.13167;stroke-linecap:square;stroke-dasharray:9.05334, 9.05334;stroke-dashoffset:18.5593;-inkscape-stroke:none"
         d="m 160.15178,-48.536564 -0.0196,1.99988 0.99994,0.01 0.65991,0.006 c 2.32034,0.0182 4.63766,0.0131 6.94945,0.0155 h 5.2e-4 v -0.99942 -1.00046 c -2.31468,-0.002 -4.62582,0.002 -6.93187,-0.0155 h -0.002 l -0.65629,-0.006 z m -6.1035,0.15813 -0.99632,0.0956 -0.48421,0.047 -0.60565,0.0682 -0.60151,0.076 -0.59583,0.0863 h -0.004 c -1.89669,0.28714 -3.78131,0.73561 -5.6038,1.3963 l -0.002,0.002 -0.15192,0.0548 -0.93793,0.34572 0.69143,1.87689 0.93793,-0.34572 0.15037,-0.0548 c 1.67608,-0.60711 3.42882,-1.02712 5.20899,-1.29708 l 0.008,-0.002 0.56637,-0.0801 0.56999,-0.0724 0.5762,-0.0646 0.47077,-0.047 0.99632,-0.0956 z m -15.47502,5.22862 -0.79686,0.60151 c -1.53042,1.15508 -2.95081,2.43767 -4.28294,3.78892 -0.57839,0.58741 -1.14252,1.18829 -1.69137,1.80299 l -0.66611,0.74569 1.49242,1.33222 0.66559,-0.74621 c 0.52737,-0.59065 1.06781,-1.16818 1.62316,-1.73219 1.27708,-1.29541 2.62542,-2.50925 4.0628,-3.5941 l 0.7984,-0.60306 z m -11.22051,11.7383 -0.57826,0.81442 c -1.56029,2.19693 -3.02664,4.4541 -4.42763,6.74378 l -0.52142,0.85369 1.70532,1.04283 0.52297,-0.85163 c 1.38241,-2.25931 2.82156,-4.47908 4.3496,-6.6306 l 0.58033,-0.81442 z" />
      <path
         id="path4381"
         style="fill:#60ae7b;stroke-width:2.82916;stroke-miterlimit:0.5;stroke-dasharray:5.65831, 2.82916;paint-order:stroke fill markers"
         inkscape:transform-center-y="1.621622e-06"
         d="m 168.74181,-29.234814 -15.82209,9.13489 -15.82209,9.1349 -15.82209,-9.1349 -15.82208,-9.13489 v -18.26977 -18.26978 l 15.82208,-9.13489 15.82209,-9.13489 15.82209,9.13489 15.82209,9.13489 v 18.26978 z"
         sodipodi:nodetypes="ccccccccccccc" />
      <path
         id="path4122"
         style="color:#000000;fill:#1f244b;stroke-width:1.13167;stroke-linecap:square;-inkscape-stroke:none"
         d="m 159.43296,-60.030954 c -7.46444,0.016 -16.57224,0.69411 -25.22688,6.0079 -8.65464,5.31378 -15.81858,13.99813 -23.74222,27.64844 l -0.0139,0.0243 10.8257,6.25026 10.82672,6.250785 c 6.87558,-11.839405 11.9004,-16.852995 15.18409,-18.869135 3.28612,-2.01761 5.86614,-2.30099 12.19925,-2.31458 2.80116,-0.006 0.20934,0.0274 9.25577,0.0274 h 5.3e-4 v -12.49897 -12.50105 h -5.3e-4 c -8.98469,0 -6.34668,-0.0317 -9.30848,-0.0253 z" />
      <path
         id="path4348"
         style="color:#000000;fill:#1f244b;stroke-width:4.27716;stroke-linecap:square;-inkscape-stroke:none"
         d="m 499.30784,-306.76097 -40.94456,23.63988 -40.93205,23.63336 c 0,0 13.15109,10.2684 17.31096,17.2807 14.48402,24.41572 36.39011,58.83852 23.91015,81.74063 -21.42084,35.04357 94.45118,4.8707 94.45118,4.8707 l 1.35742,-47.22852 c 0,0 35.63952,-23.72885 25.64037,-22.89723 -23.46426,1.95151 -28.27317,-3.38216 -28.7964,-5.79483 -4.84585,-22.34465 -21.02458,-48.70549 -51.99707,-75.24469 z"
         transform="scale(0.26458333)"
         sodipodi:nodetypes="cccacccssc" />
      <path
         id="path4124"
         style="color:#000000;fill:#f6edcd;stroke-width:1.13167;stroke-linecap:square;stroke-dasharray:9.05334, 9.05334;stroke-dashoffset:18.5593;-inkscape-stroke:none"
         d="m 159.85881,-50.514674 -0.0196,1.99988 0.99994,0.01 0.65991,0.006 c 2.32034,0.0182 4.63766,0.0131 6.94944,0.0155 h 5.3e-4 v -0.99942 -1.00046 c -2.31468,-0.002 -4.62583,0.002 -6.93187,-0.0155 h -0.002 l -0.65629,-0.006 z m -6.1035,0.15813 -0.99632,0.0956 -0.48421,0.047 -0.60565,0.0682 -0.60151,0.076 -0.59583,0.0863 h -0.004 c -1.89669,0.28714 -3.78132,0.73561 -5.6038,1.3963 l -0.002,0.002 -0.15193,0.0548 -0.93792,0.34572 0.69143,1.87689 0.93792,-0.34572 0.15038,-0.0548 c 1.67608,-0.60711 3.42882,-1.02712 5.20899,-1.29708 l 0.008,-0.002 0.56637,-0.0801 0.56999,-0.0724 0.57619,-0.0646 0.47078,-0.047 0.99632,-0.0956 z m -15.47503,5.22862 -0.79685,0.60151 c -1.53043,1.15508 -2.95081,2.43767 -4.28294,3.78892 -0.57839,0.58741 -1.14253,1.18829 -1.69137,1.80299 l -0.66611,0.74569 1.49242,1.33222 0.66559,-0.74621 c 0.52737,-0.59065 1.06781,-1.16818 1.62316,-1.73219 1.27708,-1.29541 2.62542,-2.50925 4.0628,-3.5941 l 0.7984,-0.60306 z m -11.2205,11.7383 -0.57826,0.81442 c -1.5603,2.19693 -3.02664,4.4541 -4.42764,6.74378 l -0.52141,0.85369 1.70532,1.04283 0.52297,-0.85163 c 1.38241,-2.25931 2.82156,-4.47908 4.3496,-6.6306 l 0.58033,-0.81442 z" />
      <path
         style="color:#000000;fill:#f6edcd;stroke-width:1.13167;stroke-linecap:square;stroke-dasharray:6.78999, 6.78999;stroke-dashoffset:9.73228;-inkscape-stroke:none"
         d="m 124.6543,-73.908203 -1.2461,1.5625 0.78125,0.623047 0.10547,0.08398 0.23828,0.195313 0.23438,0.195312 0.23047,0.197266 0.22461,0.199219 0.22265,0.199218 0.2168,0.199219 0.21289,0.201172 0.20898,0.203125 0.20508,0.203125 0.20117,0.203125 0.19727,0.205078 0.19336,0.205078 0.18945,0.205078 0.18555,0.207032 0.18164,0.205078 0.17773,0.208984 0.17383,0.207031 0.17188,0.207032 0.16601,0.208984 0.11328,0.146484 0.61719,0.78711 1.57422,-1.234375 -0.61523,-0.78711 -0.1211,-0.154297 -0.18164,-0.224609 -0.18359,-0.226562 -0.18946,-0.22461 -0.19335,-0.224609 -0.19727,-0.22461 -0.20117,-0.222656 -0.20508,-0.222656 -0.20898,-0.222656 -0.21289,-0.220703 -0.2168,-0.220704 -0.22266,-0.21875 -0.22656,-0.21875 -0.23047,-0.21875 -0.23437,-0.214843 -0.23829,-0.216797 -0.24414,-0.212891 -0.24804,-0.21289 -0.25391,-0.210938 -0.25586,-0.210937 -0.11523,-0.08984 z m 7.96484,9.46875 -1.83008,0.804687 0.40235,0.916016 0.13476,0.306641 0.16602,0.396484 0.15625,0.390625 0.14453,0.386719 0.13672,0.380859 0.1289,0.375 0.11914,0.369141 0.10938,0.361328 0.10156,0.355469 0.0957,0.347656 0.0859,0.339844 0.0801,0.330078 0.0723,0.322265 0.0664,0.314454 0.0606,0.302734 0.0391,0.21875 0.18164,0.982422 1.9668,-0.361328 -0.18164,-0.982422 -0.041,-0.230469 -0.0664,-0.330078 -0.0703,-0.339844 -0.0801,-0.349609 -0.0859,-0.359375 -0.0937,-0.367188 -0.10156,-0.376953 -0.11133,-0.384765 -0.11914,-0.392579 -0.12891,-0.398437 -0.13867,-0.40625 -0.14844,-0.412109 -0.1582,-0.417969 -0.16797,-0.423828 -0.17969,-0.429688 -0.14258,-0.322265 z"
         id="path4212" />
    </g>
    <g
       id="g31815"
       style="opacity:0.708185;stroke-width:1.13167"
       transform="matrix(0.88365353,0,0,0.88365353,-54.950474,52.308218)">
      <path
         id="path9985"
         style="opacity:1;fill:#868188;stroke-width:2.82916;stroke-miterlimit:0.5;stroke-dasharray:5.65831, 2.82916;paint-order:stroke fill markers"
         inkscape:transform-center-y="1.621622e-06"
         d="m 8.4917906,150.75337 -15.82209,9.13489 -15.8220906,9.13489 -15.82209,-9.13489 -15.82209,-9.13489 V 132.4836 114.21382 l 15.82209,-9.13489 15.82209,-9.13489 15.8220906,9.13489 15.82209,9.13489 v 18.26978 z"
         sodipodi:nodetypes="ccccccccccccc" />
      <g
         id="g27045"
         transform="matrix(1.0857639,0,0,1.0857639,-78.776097,271.20875)"
         style="stroke-width:1.04227">
        <path
           style="color:#000000;fill:#b8b5b9;stroke:none;stroke-width:1.04227;stroke-miterlimit:2.1;-inkscape-stroke:none;paint-order:stroke fill markers"
           d="m 51.229045,-167.19409 -17.072266,9.85743 -17.070313,9.85546 v 19.71289 19.71485 l 17.070313,9.855461 17.072266,9.85743 17.072265,-9.85743 17.072266,-9.855461 v -1.44336 -18.27149 -19.71289 l -17.072266,-9.85546 z m 0,5.77344 14.572265,8.41406 14.572266,8.41211 v 16.82617 16.82618 l -14.572266,8.41406 -14.572265,8.414061 -14.572266,-8.414061 -14.570313,-8.41211 v -16.82813 -16.82617 l 14.570313,-8.41211 z"
           id="path27041" />
        <path
           style="fill:#646365;stroke:none;stroke-width:0.275769px;stroke-linecap:butt;stroke-linejoin:miter;stroke-opacity:1"
           d="m 85.373574,-147.4812 -5.000001,2.88672 -2e-6,33.65235 -29.144529,16.828123 -29.142578,-16.826173 -4.999998,2.88672 34.142573,19.712897 34.144535,-19.712897 v -39.42774"
           id="path27043" />
      </g>
    </g>
    <g
       id="g1029"
       transform="matrix(0.9594391,0,0,0.9594391,-124.56124,64.997318)"
       style="stroke-width:1.04227">
      <path
         style="color:#000000;fill:#449489;stroke:none;stroke-width:1.04227;stroke-miterlimit:2.1;-inkscape-stroke:none;paint-order:stroke fill markers"
         d="m 51.229045,-167.19409 -17.072266,9.85743 -17.070313,9.85546 v 19.71289 19.71485 l 17.070313,9.855461 17.072266,9.85743 17.072265,-9.85743 17.072266,-9.855461 v -1.44336 -18.27149 -19.71289 l -17.072266,-9.85546 z m 0,5.77344 14.572265,8.41406 14.572266,8.41211 v 16.82617 16.82618 l -14.572266,8.41406 -14.572265,8.414061 -14.572266,-8.414061 -14.570313,-8.41211 v -16.82813 -16.82617 l 14.570313,-8.41211 z"
         id="path1025" />
      <path
         style="fill:#285763;stroke:none;stroke-width:0.275769px;stroke-linecap:butt;stroke-linejoin:miter;stroke-opacity:1"
         d="m 85.373574,-147.4812 -5.000001,2.88672 -2e-6,33.65235 -29.144529,16.828123 -29.142578,-16.826173 -4.999998,2.88672 34.142573,19.712897 34.144535,-19.712897 v -39.42774"
         id="path1027" />
    </g>
    <g
       id="g1053"
       transform="matrix(0.9594391,0,0,0.9594391,-124.56124,140.65247)"
       style="stroke-width:1.04227">
      <path
         style="color:#000000;fill:#449489;stroke:none;stroke-width:1.04227;stroke-miterlimit:2.1;-inkscape-stroke:none;paint-order:stroke fill markers"
         d="m 51.229045,-167.19409 -17.072266,9.85743 -17.070313,9.85546 v 19.71289 19.71485 l 17.070313,9.855461 17.072266,9.85743 17.072265,-9.85743 17.072266,-9.855461 v -1.44336 -18.27149 -19.71289 l -17.072266,-9.85546 z m 0,5.77344 14.572265,8.41406 14.572266,8.41211 v 16.82617 16.82618 l -14.572266,8.41406 -14.572265,8.414061 -14.572266,-8.414061 -14.570313,-8.41211 v -16.82813 -16.82617 l 14.570313,-8.41211 z"
         id="path1049" />
      <path
         style="fill:#285763;stroke:none;stroke-width:0.275769px;stroke-linecap:butt;stroke-linejoin:miter;stroke-opacity:1"
         d="m 85.373574,-147.4812 -5.000001,2.88672 -2e-6,33.65235 -29.144529,16.828123 -29.142578,-16.826173 -4.999998,2.88672 34.142573,19.712897 34.144535,-19.712897 v -39.42774"
         id="path1051" />
    </g>
    <g
       id="g1077"
       transform="matrix(0.9594391,0,0,0.9594391,-124.56125,216.30763)"
       style="stroke-width:1.04227">
      <path
         style="color:#000000;fill:#449489;stroke:none;stroke-width:1.04227;stroke-miterlimit:2.1;-inkscape-stroke:none;paint-order:stroke fill markers"
         d="m 51.229045,-167.19409 -17.072266,9.85743 -17.070313,9.85546 v 19.71289 19.71485 l 17.070313,9.855461 17.072266,9.85743 17.072265,-9.85743 17.072266,-9.855461 v -1.44336 -18.27149 -19.71289 l -17.072266,-9.85546 z m 0,5.77344 14.572265,8.41406 14.572266,8.41211 v 16.82617 16.82618 l -14.572266,8.41406 -14.572265,8.414061 -14.572266,-8.414061 -14.570313,-8.41211 v -16.82813 -16.82617 l 14.570313,-8.41211 z"
         id="path1073" />
      <path
         style="fill:#285763;stroke:none;stroke-width:0.275769px;stroke-linecap:butt;stroke-linejoin:miter;stroke-opacity:1"
         d="m 85.373574,-147.4812 -5.000001,2.88672 -2e-6,33.65235 -29.144529,16.828123 -29.142578,-16.826173 -4.999998,2.88672 34.142573,19.712897 34.144535,-19.712897 v -39.42774"
         id="path1075" />
    </g>
    <g
       id="g1035"
       transform="matrix(0.9594391,0,0,0.9594391,-59.043917,64.997318)"
       style="stroke-width:1.04227">
      <path
         style="color:#000000;fill:#449489;stroke:none;stroke-width:1.04227;stroke-miterlimit:2.1;-inkscape-stroke:none;paint-order:stroke fill markers"
         d="m 51.229045,-167.19409 -17.072266,9.85743 -17.070313,9.85546 v 19.71289 19.71485 l 17.070313,9.855461 17.072266,9.85743 17.072265,-9.85743 17.072266,-9.855461 v -1.44336 -18.27149 -19.71289 l -17.072266,-9.85546 z m 0,5.77344 14.572265,8.41406 14.572266,8.41211 v 16.82617 16.82618 l -14.572266,8.41406 -14.572265,8.414061 -14.572266,-8.414061 -14.570313,-8.41211 v -16.82813 -16.82617 l 14.570313,-8.41211 z"
         id="path1031" />
      <path
         style="fill:#285763;stroke:none;stroke-width:0.275769px;stroke-linecap:butt;stroke-linejoin:miter;stroke-opacity:1"
         d="m 85.373574,-147.4812 -5.000001,2.88672 -2e-6,33.65235 -29.144529,16.828123 -29.142578,-16.826173 -4.999998,2.88672 34.142573,19.712897 34.144535,-19.712897 v -39.42774"
         id="path1033" />
    </g>
    <g
       id="g1059"
       transform="matrix(0.9594391,0,0,0.9594391,-59.043916,140.65247)"
       style="stroke-width:1.04227">
      <path
         style="color:#000000;fill:#449489;stroke:none;stroke-width:1.04227;stroke-miterlimit:2.1;-inkscape-stroke:none;paint-order:stroke fill markers"
         d="m 51.229045,-167.19409 -17.072266,9.85743 -17.070313,9.85546 v 19.71289 19.71485 l 17.070313,9.855461 17.072266,9.85743 17.072265,-9.85743 17.072266,-9.855461 v -1.44336 -18.27149 -19.71289 l -17.072266,-9.85546 z m 0,5.77344 14.572265,8.41406 14.572266,8.41211 v 16.82617 16.82618 l -14.572266,8.41406 -14.572265,8.414061 -14.572266,-8.414061 -14.570313,-8.41211 v -16.82813 -16.82617 l 14.570313,-8.41211 z"
         id="path1055" />
      <path
         style="fill:#285763;stroke:none;stroke-width:0.275769px;stroke-linecap:butt;stroke-linejoin:miter;stroke-opacity:1"
         d="m 85.373574,-147.4812 -5.000001,2.88672 -2e-6,33.65235 -29.144529,16.828123 -29.142578,-16.826173 -4.999998,2.88672 34.142573,19.712897 34.144535,-19.712897 v -39.42774"
         id="path1057" />
    </g>
    <g
       id="g16927"
       transform="matrix(0.88365353,0,0,0.88365353,-60.173746,-18.315355)"
       style="stroke-width:1.13167">
      <path
         id="path15039"
         style="fill:#60ae7b;stroke-width:2.82916;stroke-miterlimit:0.5;stroke-dasharray:5.65831, 2.82916;paint-order:stroke fill markers"
         inkscape:transform-center-y="1.621622e-06"
         d="m 88.545359,145.06009 -15.82209,9.13489 -15.82209,9.13489 -15.82209,-9.13489 L 25.257,145.06009 v -18.26977 -18.26978 l 15.822089,-9.13489 15.82209,-9.13489 15.82209,9.13489 15.82209,9.13489 v 18.26978 z"
         sodipodi:nodetypes="ccccccccccccc" />
      <path
         id="path15041"
         style="color:#000000;fill:#1f244b;stroke-width:1.13167;-inkscape-stroke:none"
         d="m 61.767766,93.06099 -3.593063,6.223394 c -0.733684,1.283556 -2.038699,1.180946 -2.745568,-0.04341 L 51.903769,93.134888 30.25341,105.6349 l 3.337782,5.65392 c 0,0 1.405705,2.94012 -2.619478,3.0024 h -5.714381 v 25.00002 h 6.661608 c 2.096632,0.50617 1.233514,3.33313 1.233516,3.33313 l -3.029272,5.24723 21.650359,12.50001 3.451984,-5.97896 c 0.797835,-1.3819 2.306249,-1.51044 3.201874,0.0408 l 3.47059,6.01204 21.650356,-12.50002 -3.029273,-5.24722 c 0,0 -1.006665,-3.28997 1.783355,-3.40703 h 6.241995 V 114.2912 h -5.395018 c -0.09714,-0.0418 -0.20406,-0.0682 -0.327113,-0.0682 -4.186499,0 -2.741951,-3.0086 -2.741951,-3.0086 l 3.33778,-5.6534 z m -4.86637,27.27482 a 6.4545588,6.4545588 0 0 1 6.454386,6.45439 6.4545588,6.4545588 0 0 1 -6.454386,6.4549 6.4545588,6.4545588 0 0 1 -6.454904,-6.4549 6.4545588,6.4545588 0 0 1 6.454904,-6.45439 z" />
      <path
         style="color:#000000;fill:#f6edcd;stroke-width:1.13167;stroke-miterlimit:1.3;stroke-dasharray:9.05334, 9.05334;stroke-dashoffset:22.6333;-inkscape-stroke:none"
         d="m 25.257358,125.79114 v 2 h 4 v -2 z m 60.000001,0 v 2 h 3.28711 v -2 z"
         id="path15047"
         sodipodi:nodetypes="cccccccccc" />
      <path
         style="color:#000000;fill:#f6edcd;stroke-width:1.13167;stroke-miterlimit:1.3;stroke-dasharray:9.05334, 9.05334;stroke-dashoffset:22.6333;-inkscape-stroke:none"
         d="m 41.944859,98.88489 -1.73242,1 2,3.46485 1.73242,-1 z m 30,51.96289 -1.73242,1 1.64453,2.84766 1.73242,-1 z"
         id="path15049"
         sodipodi:nodetypes="cccccccccc" />
      <path
         style="color:#000000;fill:#f6edcd;stroke-width:1.13167;stroke-miterlimit:1.3;stroke-dasharray:9.05334, 9.05334;stroke-dashoffset:22.6333;-inkscape-stroke:none"
         d="m 71.726769,98.81072 1.73242,1 -2,3.46485 -1.73242,-1 z m -30,51.96289 1.73242,1 -1.64453,2.84766 -1.73242,-1 z"
         id="path15051"
         sodipodi:nodetypes="cccccccccc" />
      <path
         id="circle16305-0"
         style="fill:none;stroke:#f6edcd;stroke-width:2.26333;stroke-linecap:square;stroke-miterlimit:1.3;stroke-dasharray:4.52666, 9.05334;stroke-dashoffset:22.6333;paint-order:stroke fill markers"
         d="M 72.720691,126.8656 A 15.714975,15.714975 0 0 1 57.005716,142.58057 15.714975,15.714975 0 0 1 41.29074,126.8656 15.714975,15.714975 0 0 1 57.005716,111.15062 15.714975,15.714975 0 0 1 72.720691,126.8656 Z" />
    </g>
    <g
       id="g1083"
       transform="matrix(0.9594391,0,0,0.9594391,-59.043922,216.30763)"
       style="stroke-width:1.04227">
      <path
         style="color:#000000;fill:#449489;stroke:none;stroke-width:1.04227;stroke-miterlimit:2.1;-inkscape-stroke:none;paint-order:stroke fill markers"
         d="m 51.229045,-167.19409 -17.072266,9.85743 -17.070313,9.85546 v 19.71289 19.71485 l 17.070313,9.855461 17.072266,9.85743 17.072265,-9.85743 17.072266,-9.855461 v -1.44336 -18.27149 -19.71289 l -17.072266,-9.85546 z m 0,5.77344 14.572265,8.41406 14.572266,8.41211 v 16.82617 16.82618 l -14.572266,8.41406 -14.572265,8.414061 -14.572266,-8.414061 -14.570313,-8.41211 v -16.82813 -16.82617 l 14.570313,-8.41211 z"
         id="path1079" />
      <path
         style="fill:#285763;stroke:none;stroke-width:0.275769px;stroke-linecap:butt;stroke-linejoin:miter;stroke-opacity:1"
         d="m 85.373574,-147.4812 -5.000001,2.88672 -2e-6,33.65235 -29.144529,16.828123 -29.142578,-16.826173 -4.999998,2.88672 34.142573,19.712897 34.144535,-19.712897 v -39.42774"
         id="path1081" />
    </g>
    <g
       id="g1017"
       transform="matrix(0.9594391,0,0,0.9594391,-59.043923,291.96279)"
       style="stroke-width:1.04227">
      <path
         style="color:#000000;fill:#449489;stroke:none;stroke-width:1.04227;stroke-miterlimit:2.1;-inkscape-stroke:none;paint-order:stroke fill markers"
         d="m 51.229045,-167.19409 -17.072266,9.85743 -17.070313,9.85546 v 19.71289 19.71485 l 17.070313,9.855461 17.072266,9.85743 17.072265,-9.85743 17.072266,-9.855461 v -1.44336 -18.27149 -19.71289 l -17.072266,-9.85546 z m 0,5.77344 14.572265,8.41406 14.572266,8.41211 v 16.82617 16.82618 l -14.572266,8.41406 -14.572265,8.414061 -14.572266,-8.414061 -14.570313,-8.41211 v -16.82813 -16.82617 l 14.570313,-8.41211 z"
         id="path1013" />
      <path
         style="fill:#285763;stroke:none;stroke-width:0.275769px;stroke-linecap:butt;stroke-linejoin:miter;stroke-opacity:1"
         d="m 85.373574,-147.4812 -5.000001,2.88672 -2e-6,33.65235 -29.144529,16.828123 -29.142578,-16.826173 -4.999998,2.88672 34.142573,19.712897 34.144535,-19.712897 v -39.42774"
         id="path1015" />
    </g>
    <g
       id="g1041"
       transform="matrix(0.9594391,0,0,0.9594391,6.4734064,64.997318)"
       style="stroke-width:1.04227">
      <path
         style="color:#000000;fill:#449489;stroke:none;stroke-width:1.04227;stroke-miterlimit:2.1;-inkscape-stroke:none;paint-order:stroke fill markers"
         d="m 51.229045,-167.19409 -17.072266,9.85743 -17.070313,9.85546 v 19.71289 19.71485 l 17.070313,9.855461 17.072266,9.85743 17.072265,-9.85743 17.072266,-9.855461 v -1.44336 -18.27149 -19.71289 l -17.072266,-9.85546 z m 0,5.77344 14.572265,8.41406 14.572266,8.41211 v 16.82617 16.82618 l -14.572266,8.41406 -14.572265,8.414061 -14.572266,-8.414061 -14.570313,-8.41211 v -16.82813 -16.82617 l 14.570313,-8.41211 z"
         id="path1037" />
      <path
         style="fill:#285763;stroke:none;stroke-width:0.275769px;stroke-linecap:butt;stroke-linejoin:miter;stroke-opacity:1"
         d="m 85.373574,-147.4812 -5.000001,2.88672 -2e-6,33.65235 -29.144529,16.828123 -29.142578,-16.826173 -4.999998,2.88672 34.142573,19.712897 34.144535,-19.712897 v -39.42774"
         id="path1039" />
    </g>
    <g
       id="g1065"
       transform="matrix(0.9594391,0,0,0.9594391,6.473407,140.65247)"
       style="stroke-width:1.04227">
      <path
         style="color:#000000;fill:#449489;stroke:none;stroke-width:1.04227;stroke-miterlimit:2.1;-inkscape-stroke:none;paint-order:stroke fill markers"
         d="m 51.229045,-167.19409 -17.072266,9.85743 -17.070313,9.85546 v 19.71289 19.71485 l 17.070313,9.855461 17.072266,9.85743 17.072265,-9.85743 17.072266,-9.855461 v -1.44336 -18.27149 -19.71289 l -17.072266,-9.85546 z m 0,5.77344 14.572265,8.41406 14.572266,8.41211 v 16.82617 16.82618 l -14.572266,8.41406 -14.572265,8.414061 -14.572266,-8.414061 -14.570313,-8.41211 v -16.82813 -16.82617 l 14.570313,-8.41211 z"
         id="path1061" />
      <path
         style="fill:#285763;stroke:none;stroke-width:0.275769px;stroke-linecap:butt;stroke-linejoin:miter;stroke-opacity:1"
         d="m 85.373574,-147.4812 -5.000001,2.88672 -2e-6,33.65235 -29.144529,16.828123 -29.142578,-16.826173 -4.999998,2.88672 34.142573,19.712897 34.144535,-19.712897 v -39.42774"
         id="path1063" />
    </g>
    <g
       id="g1089"
       transform="matrix(0.9594391,0,0,0.9594391,6.4734012,216.30763)"
       style="stroke-width:1.04227">
      <path
         style="color:#000000;fill:#449489;stroke:none;stroke-width:1.04227;stroke-miterlimit:2.1;-inkscape-stroke:none;paint-order:stroke fill markers"
         d="m 51.229045,-167.19409 -17.072266,9.85743 -17.070313,9.85546 v 19.71289 19.71485 l 17.070313,9.855461 17.072266,9.85743 17.072265,-9.85743 17.072266,-9.855461 v -1.44336 -18.27149 -19.71289 l -17.072266,-9.85546 z m 0,5.77344 14.572265,8.41406 14.572266,8.41211 v 16.82617 16.82618 l -14.572266,8.41406 -14.572265,8.414061 -14.572266,-8.414061 -14.570313,-8.41211 v -16.82813 -16.82617 l 14.570313,-8.41211 z"
         id="path1085" />
      <path
         style="fill:#285763;stroke:none;stroke-width:0.275769px;stroke-linecap:butt;stroke-linejoin:miter;stroke-opacity:1"
         d="m 85.373574,-147.4812 -5.000001,2.88672 -2e-6,33.65235 -29.144529,16.828123 -29.142578,-16.826173 -4.999998,2.88672 34.142573,19.712897 34.144535,-19.712897 v -39.42774"
         id="path1087" />
    </g>
    <g
       id="g1047"
       transform="matrix(0.9594391,0,0,0.9594391,71.99073,64.997318)"
       style="stroke-width:1.04227">
      <path
         style="color:#000000;fill:#449489;stroke:none;stroke-width:1.04227;stroke-miterlimit:2.1;-inkscape-stroke:none;paint-order:stroke fill markers"
         d="m 51.229045,-167.19409 -17.072266,9.85743 -17.070313,9.85546 v 19.71289 19.71485 l 17.070313,9.855461 17.072266,9.85743 17.072265,-9.85743 17.072266,-9.855461 v -1.44336 -18.27149 -19.71289 l -17.072266,-9.85546 z m 0,5.77344 14.572265,8.41406 14.572266,8.41211 v 16.82617 16.82618 l -14.572266,8.41406 -14.572265,8.414061 -14.572266,-8.414061 -14.570313,-8.41211 v -16.82813 -16.82617 l 14.570313,-8.41211 z"
         id="path1043" />
      <path
         style="fill:#285763;stroke:none;stroke-width:0.275769px;stroke-linecap:butt;stroke-linejoin:miter;stroke-opacity:1"
         d="m 85.373574,-147.4812 -5.000001,2.88672 -2e-6,33.65235 -29.144529,16.828123 -29.142578,-16.826173 -4.999998,2.88672 34.142573,19.712897 34.144535,-19.712897 v -39.42774"
         id="path1045" />
    </g>
    <g
       id="g1071"
       transform="matrix(0.9594391,0,0,0.9594391,71.990731,140.65247)"
       style="stroke-width:1.04227">
      <path
         style="color:#000000;fill:#449489;stroke:none;stroke-width:1.04227;stroke-miterlimit:2.1;-inkscape-stroke:none;paint-order:stroke fill markers"
         d="m 51.229045,-167.19409 -17.072266,9.85743 -17.070313,9.85546 v 19.71289 19.71485 l 17.070313,9.855461 17.072266,9.85743 17.072265,-9.85743 17.072266,-9.855461 v -1.44336 -18.27149 -19.71289 l -17.072266,-9.85546 z m 0,5.77344 14.572265,8.41406 14.572266,8.41211 v 16.82617 16.82618 l -14.572266,8.41406 -14.572265,8.414061 -14.572266,-8.414061 -14.570313,-8.41211 v -16.82813 -16.82617 l 14.570313,-8.41211 z"
         id="path1067" />
      <path
         style="fill:#285763;stroke:none;stroke-width:0.275769px;stroke-linecap:butt;stroke-linejoin:miter;stroke-opacity:1"
         d="m 85.373574,-147.4812 -5.000001,2.88672 -2e-6,33.65235 -29.144529,16.828123 -29.142578,-16.826173 -4.999998,2.88672 34.142573,19.712897 34.144535,-19.712897 v -39.42774"
         id="path1069" />
    </g>
    <g
       id="g1095"
       transform="matrix(0.9594391,0,0,0.9594391,71.990725,216.30763)"
       style="stroke-width:1.04227">
      <path
         style="color:#000000;fill:#449489;stroke:none;stroke-width:1.04227;stroke-miterlimit:2.1;-inkscape-stroke:none;paint-order:stroke fill markers"
         d="m 51.229045,-167.19409 -17.072266,9.85743 -17.070313,9.85546 v 19.71289 19.71485 l 17.070313,9.855461 17.072266,9.85743 17.072265,-9.85743 17.072266,-9.855461 v -1.44336 -18.27149 -19.71289 l -17.072266,-9.85546 z m 0,5.77344 14.572265,8.41406 14.572266,8.41211 v 16.82617 16.82618 l -14.572266,8.41406 -14.572265,8.414061 -14.572266,-8.414061 -14.570313,-8.41211 v -16.82813 -16.82617 l 14.570313,-8.41211 z"
         id="path1091" />
      <path
         style="fill:#285763;stroke:none;stroke-width:0.275769px;stroke-linecap:butt;stroke-linejoin:miter;stroke-opacity:1"
         d="m 85.373574,-147.4812 -5.000001,2.88672 -2e-6,33.65235 -29.144529,16.828123 -29.142578,-16.826173 -4.999998,2.88672 34.142573,19.712897 34.144535,-19.712897 v -39.42774"
         id="path1093" />
    </g>
    <g
       id="g26841"
       transform="matrix(0.88365353,0,0,0.88365353,-76.572383,57.979856)"
       style="stroke-width:1.13167">
      <path
         id="path17362"
         style="opacity:1;fill:#60ae7b;stroke-width:2.82916;stroke-miterlimit:0.5;stroke-dasharray:5.65831, 2.82916;paint-order:stroke fill markers"
         inkscape:transform-center-y="1.621622e-06"
         d="m 255.39043,58.717082 -15.82209,9.134894 -15.82209,9.134893 -15.82209,-9.134893 -15.82209,-9.134894 v -18.26977 -18.26978 l 15.82209,-9.13489 15.82209,-9.1348898 15.82209,9.1348898 15.82209,9.13489 v 18.26978 z"
         sodipodi:nodetypes="ccccccccccccc" />
      <path
         style="fill:#d1a67e;stroke:#a8605d;stroke-width:4.52666;stroke-linecap:round;stroke-linejoin:round;stroke-miterlimit:4;stroke-dasharray:none;stroke-opacity:1;paint-order:fill markers stroke"
         d="m 202.13774,38.727593 19.79338,-19.737702 c 2.04345,-1.938692 2.18487,-1.660386 4.3256,0.261993 l 4.05487,3.641262 c 0.63687,0.572284 1.15054,0.638301 1.15054,-0.280364 v -2.393169 c -0.18768,-2.167537 0.15788,-1.907341 2.16666,-1.907341 h 4.11668 c 2.76017,0 2.52777,-0.0314 2.52777,2.483144 v 9.626647 c -0.02,1.83037 -0.26306,1.447244 0.93889,2.645086 l 2.89792,2.887999 0.78541,0.782723 c 0.73384,0.731323 1.622,3.401295 -0.12789,3.401295 -1.71377,0 -4.20494,0.157748 -4.45796,1.149258 -0.25304,0.991519 0,16.322189 0,16.322189 0,0 0.86666,2.969097 -2.97931,2.969097 -3.84595,0 -5.87996,-0.05005 -5.87996,-0.05005 V 49.909262 c 0,0 0.0683,-4.405886 -3.02941,-4.405886 -3.0977,0 -9.14991,-0.0067 -9.14991,-0.0067 0,0 -2.79502,-0.12163 -2.79502,3.045265 0,3.166905 -0.24048,11.957452 -0.24048,11.957452 l -7.48729,-0.0096 c 0,0 -1.08109,-0.213048 -1.08109,-1.330096 V 41.812099 c 0,0 0.0361,-1.530586 -1.53585,-1.530586 -1.57196,0 -2.65529,0.05511 -2.83585,0.127073 -0.18055,0.07199 -2.55429,-0.289209 -1.1577,-1.681002 z"
         id="path23401"
         sodipodi:nodetypes="cccccccccccczsscsccscsccscsssc" />
    </g>
  </g>
</svg>
